<svg xmlns="http://www.w3.org/2000/svg" width="223.5" height="254.28" viewBox="76 208 223.5 254.28"><g data-name="Group 8168"><g data-name="Group 8155"><g data-name="Group 8153"><path d="M267.597 414.063s.132-10.646 10.646-10.646c0 0-10.646-.132-10.646-10.647 0 0-.132 10.647-10.646 10.647 0 0 10.646.131 10.646 10.646Z" fill="#fc6011" fill-rule="evenodd" data-name="Path 10209"/><path d="M137.239 462.28s.132-10.647 10.646-10.647c0 0-10.646-.13-10.646-10.644 0 0-.13 10.644-10.645 10.644 0 0 10.645.132 10.645 10.647Z" fill="#fc6011" fill-rule="evenodd" data-name="Path 10210"/><path d="M201.796 289.2s.131-10.647 10.646-10.647c0 0-10.646-.132-10.646-10.646 0 0-.132 10.646-10.647 10.646 0 0 10.647.132 10.647 10.646Z" fill="#fc6011" fill-rule="evenodd" data-name="Path 10211"/><path d="M241.632 446.144s.077-6.25 6.25-6.25c0 0-6.25-.079-6.25-6.253 0 0-.077 6.253-6.252 6.253 0 0 6.252.076 6.252 6.25Z" fill="#fc6011" fill-rule="evenodd" data-name="Path 10212"/><path d="M105.978 447.24s.077-6.251 6.252-6.251c0 0-6.252-.079-6.252-6.253 0 0-.077 6.253-6.25 6.253 0 0 6.25.076 6.25 6.25Z" fill="#fc6011" fill-rule="evenodd" data-name="Path 10213"/></g><g data-name="Group 8154"><path d="M287.336 318.264c-6.706 0-12.164-5.456-12.164-12.164 0-6.706 5.458-12.162 12.164-12.162 6.707 0 12.164 5.456 12.164 12.162 0 6.708-5.457 12.164-12.164 12.164Zm0-20.649c-4.678 0-8.485 3.807-8.485 8.485 0 4.678 3.807 8.485 8.485 8.485 4.678 0 8.485-3.807 8.485-8.485 0-4.678-3.807-8.485-8.485-8.485Z" fill="#f9ca24" fill-rule="evenodd" data-name="Path 10214"/><path d="M104.123 301.362c-13.002 0-23.58-10.578-23.58-23.58 0-13.002 10.578-23.578 23.58-23.578 13.002 0 23.578 10.576 23.578 23.578 0 13.002-10.576 23.58-23.578 23.58Zm0-43.479c-10.973 0-19.9 8.927-19.9 19.899 0 10.972 8.927 19.9 19.9 19.9 10.972 0 19.9-8.928 19.9-19.9 0-10.972-8.928-19.899-19.9-19.899Z" fill="#f9ca24" fill-rule="evenodd" data-name="Path 10215"/><path d="M198.988 452.11c-13.001 0-23.579-10.578-23.579-23.58 0-13 10.578-23.576 23.579-23.576 13.001 0 23.579 10.576 23.579 23.577 0 13.001-10.578 23.579-23.58 23.579Zm0-43.477c-10.973 0-19.901 8.926-19.901 19.898 0 10.973 8.928 19.9 19.9 19.9 10.974 0 19.9-8.927 19.9-19.9 0-10.972-8.926-19.898-19.9-19.898Z" fill="#f9ca24" fill-rule="evenodd" data-name="Path 10216"/></g></g><g data-name="Group 8167"><g data-name="Group 8157"><g data-name="Group 8156"><path d="M272.127 374.479a11.577 11.577 0 1 1 .1.011z" fill="#fc6011" fill-rule="evenodd" data-name="Ellipse 114"/><path d="M281.783 354.729c3.961 5.018 3.106 12.298-1.91 16.26-5.02 3.963-12.3 3.108-16.261-1.909-3.963-5.018-3.108-12.298 1.91-16.26 5.017-3.963 12.297-3.108 16.26 1.909Z" fill="#f9ca24" fill-rule="evenodd" data-name="Path 10217"/><path d="M280.421 355.805c3.37 4.265 2.643 10.455-1.623 13.824-4.267 3.37-10.457 2.643-13.826-1.623-3.37-4.267-2.642-10.457 1.625-13.826 4.266-3.369 10.455-2.643 13.824 1.625Z" fill="#fc6011" fill-rule="evenodd" data-name="Path 10218"/><path d="M275.954 360.169a3.268 3.268 0 0 0-1.548.092c-.44.134-.959.337-1.553.61l-.288.132a20.71 20.71 0 0 1-1.161.495l-.122.044c-.324.117-.63.168-.914.153a.931.931 0 0 1-.704-.375c-.264-.333-.33-.719-.198-1.153.066-.215.188-.433.368-.657.182-.23.427-.462.73-.701a5.071 5.071 0 0 1 1.264-.733 5.981 5.981 0 0 1 1.5-.406l-.453-1.56c-.535.043-1.095.194-1.676.45-.428.19-.834.415-1.217.677l-.952-1.207-1.198.945.985 1.248a4.85 4.85 0 0 0-.797 1.076c-.323.609-.461 1.195-.415 1.759.048.564.25 1.072.608 1.525.423.536.9.853 1.426.95a3.182 3.182 0 0 0 1.541-.089c.383-.119.832-.292 1.35-.52.164-.07.337-.148.514-.23a19.834 19.834 0 0 1 1.283-.54c.325-.116.631-.166.918-.146.288.02.524.146.708.38.254.32.306.695.16 1.126-.09.264-.264.538-.526.82a5.413 5.413 0 0 1-.604.55 5.75 5.75 0 0 1-.586.403 5.88 5.88 0 0 1-1.08.503c-.619.216-1.2.325-1.746.323l.408 1.596c.575.026 1.228-.104 1.96-.388.511-.2.999-.454 1.462-.762l.964 1.22 1.198-.945-.97-1.228c.41-.397.727-.809.95-1.228.327-.613.468-1.197.425-1.758a2.747 2.747 0 0 0-.602-1.518c-.418-.53-.889-.841-1.412-.933Z" fill="#f9ca24" fill-rule="evenodd" data-name="Path 10219"/></g></g><g data-name="Group 8159"><g data-name="Group 8158"><path d="M121.335 414.263c-1.905 6.103-8.397 9.506-14.5 7.601-6.103-1.904-9.507-8.397-7.602-14.5 1.905-6.103 8.397-9.507 14.501-7.602 6.103 1.906 9.506 8.397 7.601 14.501Z" fill="#fc6011" fill-rule="evenodd" data-name="Path 10220"/><path d="M99.395 412.005a11.577 11.577 0 1 1 .023.098z" fill="#f9ca24" fill-rule="evenodd" data-name="Ellipse 115"/><path d="M108.418 419.07a9.843 9.843 0 1 1 .098.022z" fill="#fc6011" fill-rule="evenodd" data-name="Ellipse 116"/><path d="M113.969 411.202a3.283 3.283 0 0 0-.951-1.226c-.36-.287-.82-.6-1.38-.937a20.15 20.15 0 0 0-.273-.163c-.439-.267-.794-.492-1.063-.68a8.634 8.634 0 0 0-.104-.075 2.318 2.318 0 0 1-.643-.669.933.933 0 0 1-.089-.793c.128-.406.41-.678.84-.813.216-.068.465-.09.75-.068.293.022.624.09.992.206.163.052.326.111.487.181a6.008 6.008 0 0 1 2.014 1.457l1.03-1.254a5.245 5.245 0 0 0-1.315-1.128 7.766 7.766 0 0 0-1.246-.623l.458-1.467-1.457-.455-.474 1.517a4.799 4.799 0 0 0-1.338-.05c-.685.078-1.246.293-1.685.652-.439.356-.744.81-.915 1.36-.205.653-.2 1.225.018 1.715.216.487.532.895.945 1.221.313.249.71.522 1.191.82.151.097.312.196.48.296a18.598 18.598 0 0 1 1.17.753c.28.203.492.428.64.675a.96.96 0 0 1 .086.8c-.122.389-.404.644-.84.768-.268.075-.594.085-.973.028-.243-.037-.51-.1-.796-.189a5.565 5.565 0 0 1-.664-.255 5.926 5.926 0 0 1-1.025-.608c-.527-.388-.946-.808-1.252-1.259l-1.088 1.238c.305.49.78.955 1.427 1.399.456.308.94.568 1.455.778l-.464 1.483 1.457.454.465-1.493c.56.114 1.08.144 1.553.092.688-.075 1.251-.29 1.69-.643a2.73 2.73 0 0 0 .913-1.353c.2-.644.192-1.208-.026-1.692Z" fill="#f9ca24" fill-rule="evenodd" data-name="Path 10221"/></g></g><g data-name="Group 8162"><path d="M219.753 332.632v11.681h-72.999c-3.226 0-5.851-2.614-5.851-5.83 0-.132 0-.277.022-.411a5.84 5.84 0 0 1 5.83-5.44h72.998Z" fill="#171723" fill-rule="evenodd" data-name="Path 10222"/><path d="M147.63 336.578h76.851v20.302H147.63v-20.302Z" fill="#b6b7b7" fill-rule="evenodd" data-name="Path 10233"/><path d="M153.562 344.313s3.152-8.106-6.396-8.106v15.76h6.119l.277-7.654Z" fill="#fff" fill-rule="evenodd" data-name="Path 10224"/><g data-name="Group 8161"><path d="m207.07 300.542 37.783 6.185c3.91.641 6.602 4.043 6.02 7.596l-11.568 70.66c-.582 3.555-4.219 5.921-8.129 5.28l-37.783-6.186c-3.9-.638-6.594-4.04-6.012-7.594l11.57-70.66c.582-3.554 4.218-5.92 8.118-5.28Z" fill="#f9ca24" fill-rule="evenodd" data-name="Path 10223"/><path d="m193.568 384.106 13.677-83.535 6.596 1.08-13.677 83.535-6.596-1.08z" fill="#f0932b" fill-rule="evenodd" data-name="Rectangle 17344"/><g data-name="Group 8160"><path d="m203.493 381.183 1.434-8.759 2.146.352-1.434 8.758-2.146-.351z" fill="#fff" fill-rule="evenodd" data-name="Rectangle 17345"/><path d="m205.651 368 1.434-8.76 2.147.352-1.434 8.759-2.147-.352z" fill="#fff" fill-rule="evenodd" data-name="Rectangle 17346"/><path d="m207.81 354.816 1.434-8.759 2.146.351-1.434 8.76-2.146-.352z" fill="#fff" fill-rule="evenodd" data-name="Rectangle 17347"/><path d="m209.968 341.632 1.434-8.759 2.147.352-1.434 8.759-2.147-.352z" fill="#fff" fill-rule="evenodd" data-name="Rectangle 17348"/><path d="m212.127 328.449 1.434-8.76 2.146.352-1.434 8.759-2.146-.351z" fill="#fff" fill-rule="evenodd" data-name="Rectangle 17349"/><path d="m214.285 315.265 1.434-8.759 2.147.352-1.434 8.758-2.147-.351z" fill="#fff" fill-rule="evenodd" data-name="Rectangle 17350"/></g><path d="m229.27 326.758 2.662-16.267 11.04 1.807-2.663 16.268-11.04-1.808z" fill="#f6e58d" fill-rule="evenodd" data-name="Rectangle 17351"/></g><path d="M147.523 340.379h82.66v20.302h-82.66V340.38z" fill="#e7e7e7" fill-rule="evenodd" data-name="Rectangle 17352"/><path d="M235.75 344.313v72.866h-88.996c-3.226 0-5.851-2.614-5.851-5.83v-72.865c0 3.215 2.625 5.83 5.851 5.83h88.996Z" fill="#3c4382" fill-rule="evenodd" data-name="Path 10225"/><path d="M235.75 344.313v72.866h-88.996c-3.226 0-5.851-2.614-5.851-5.83v-72.865c0 3.215 2.625 5.83 5.851 5.83h88.996Z" fill="#29293d" fill-rule="evenodd" data-name="Path 10226"/></g><g data-name="Group 8163"><path d="M195.928 241.22 229.08 208l58.256 58.136-33.152 33.221-58.256-58.136z" fill="#fc6011" fill-rule="evenodd" data-name="Rectangle 17353"/><path d="m281.468 268.58-24.852 24.903a6.317 6.317 0 0 0-4.876.006l-49.939-49.836c.65-1.558.65-3.32-.005-4.876l24.852-24.905c1.557.652 3.32.65 4.876-.004l49.939 49.837a6.317 6.317 0 0 0 .005 4.875Z" fill="#f6e58d" fill-rule="evenodd" data-name="Path 10227"/><path d="M223.675 253.578a17.957 17.957 0 1 1 0 .1z" fill="#fc6011" fill-rule="evenodd" data-name="Ellipse 117"/><path d="M245.352 259.068a5.78 5.78 0 0 0-.475-2.701c-.325-.747-.785-1.617-1.381-2.606-.094-.157-.191-.317-.291-.479a36.058 36.058 0 0 1-1.102-1.94l-.102-.205c-.272-.546-.421-1.072-.451-1.574-.03-.504.14-.939.516-1.312.533-.53 1.198-.723 1.984-.579.392.073.8.243 1.23.513.437.276.897.658 1.377 1.142.213.214.417.442.612.683.335.422.648.883.93 1.39.444.795.782 1.643 1.013 2.552l2.648-1.11c-.184-.93-.562-1.88-1.126-2.85a13.57 13.57 0 0 0-1.434-2l1.93-1.917-1.9-1.913-1.995 1.981a8.51 8.51 0 0 0-2.05-1.184c-1.134-.443-2.19-.57-3.171-.375a4.944 4.944 0 0 0-2.556 1.371c-.856.853-1.32 1.753-1.386 2.696a5.645 5.645 0 0 0 .468 2.69c.286.648.68 1.402 1.185 2.266.156.275.326.562.509.857a35.139 35.139 0 0 1 1.203 2.143c.27.549.417 1.076.442 1.584.023.51-.152.95-.524 1.32-.512.508-1.162.675-1.947.506-.48-.104-.998-.358-1.544-.76a9.425 9.425 0 0 1-1.087-.951 9.754 9.754 0 0 1-.828-.948 10.42 10.42 0 0 1-1.1-1.795c-.504-1.043-.81-2.042-.918-3l-2.72 1.035c.07 1.017.43 2.138 1.074 3.363.456.86 1 1.666 1.63 2.418l-1.948 1.936 1.9 1.913 1.963-1.95c.78.641 1.566 1.115 2.348 1.425 1.14.451 2.197.58 3.174.39a4.836 4.836 0 0 0 2.543-1.36c.847-.84 1.298-1.73 1.357-2.665Z" fill="#f6e58d" fill-rule="evenodd" data-name="Path 10228"/></g><g data-name="Group 8164"><path d="m76 359.796 34.74-69.99 39.911 19.81-34.739 69.99L76 359.796z" fill="#fc6011" fill-rule="evenodd" data-name="Rectangle 17354"/><path d="m114.711 294.35 29.92 14.85a5.99 5.99 0 0 0 1.477 4.388l-29.78 59.998a6.002 6.002 0 0 0-4.388 1.476l-29.92-14.85a5.998 5.998 0 0 0-1.476-4.387l29.78-60a5.994 5.994 0 0 0 4.387-1.474Z" fill="#f6e58d" fill-rule="evenodd" data-name="Path 10229"/><path d="M96.277 334.606a17.048 17.048 0 1 1 0 .1z" fill="#fc6011" fill-rule="evenodd" data-name="Ellipse 118"/><path d="M117.052 329.731a5.49 5.49 0 0 0-2.287 1.242c-.574.517-1.218 1.194-1.927 2.031-.113.13-.228.268-.344.406a34.092 34.092 0 0 1-1.414 1.577c-.053.054-.106.104-.154.154-.409.41-.837.702-1.28.882-.445.179-.888.157-1.337-.068-.638-.322-1.012-.86-1.12-1.613-.053-.373-.023-.793.091-1.261.115-.476.321-1.006.61-1.585.13-.255.274-.508.432-.756.278-.43.6-.85.97-1.256.582-.64 1.243-1.2 1.991-1.685l-1.798-2.047c-.782.447-1.524 1.074-2.225 1.874a12.93 12.93 0 0 0-1.369 1.894l-2.306-1.157-1.149 2.289 2.385 1.195a7.986 7.986 0 0 0-.446 2.204c-.058 1.154.148 2.142.62 2.968a4.677 4.677 0 0 0 2.005 1.885c1.025.514 1.976.66 2.845.433a5.35 5.35 0 0 0 2.28-1.232 22.002 22.002 0 0 0 1.682-1.75c.199-.225.407-.465.617-.716.426-.502.802-.925 1.13-1.272.156-.173.303-.327.436-.46.413-.408.843-.7 1.293-.875.451-.175.9-.15 1.346.072.612.308.958.843 1.043 1.6.052.464-.02 1.006-.217 1.62a9.048 9.048 0 0 1-.528 1.265c-.179.355-.38.698-.604 1.03a9.835 9.835 0 0 1-1.283 1.533c-.786.769-1.595 1.347-2.424 1.734l1.754 2.135c.894-.37 1.794-1.032 2.702-1.983a13.14 13.14 0 0 0 1.684-2.197l2.332 1.17 1.147-2.29-2.347-1.177c.342-.895.531-1.746.574-2.543.062-1.163-.141-2.153-.608-2.975a4.593 4.593 0 0 0-1.991-1.879c-1.013-.508-1.949-.646-2.81-.416Z" fill="#f6e58d" fill-rule="evenodd" data-name="Path 10230"/></g><g data-name="Group 8166"><path d="M183.854 250.327c0-20.006-16.218-36.224-36.224-36.224-20.007 0-36.226 16.218-36.226 36.224 0 20.007 16.22 36.226 36.226 36.226.645 0 1.286-.018 1.922-.052l14.685 15.378v-19.36c11.65-6.023 19.617-18.174 19.617-32.192Z" fill="#fc6011" fill-rule="evenodd" data-name="Path 10231"/><g data-name="Group 8165"><path d="m173.644 238.354-30.712 30.712-21.317-21.317 6.764-6.764 14.553 14.553 23.948-23.948 6.764 6.764Z" fill="#fff" fill-rule="evenodd" data-name="Path 10232"/></g></g></g></g></svg>